<svg width="76" height="27" viewBox="0 0 76 27" fill="none" xmlns="http://www.w3.org/2000/svg">
<path d="M53.61 17.29C51.97 22.9 46.79 27 40.65 27C33.19 27 27.15 20.96 27.15 13.5C27.15 6.04 33.19 0 40.65 0C46.79 0 51.97 4.1 53.61 9.71H47.77C46.41 7.16 43.73 5.43 40.65 5.43C36.19 5.43 32.58 9.04 32.58 13.5C32.58 17.96 36.19 21.57 40.65 21.57C43.74 21.57 46.42 19.84 47.77 17.29H53.61ZM75.54 21.57H55.54V27H75.54V21.57ZM75.54 0H55.54V5.43H75.54V0ZM69.07 10.78H55.54V16.21H69.07V10.78ZM30 27H0L15 0L30 27ZM17.17 24.5C16.66 24.24 16.21 23.89 15.85 23.46C15.48 23.03 15.19 22.54 15.01 21.99C14.65 23.08 13.87 23.98 12.86 24.5H17.17ZM20.66 21.51C21.7 20.47 21.69 18.78 20.65 17.74L18.76 15.86L14.98 12.1L11.22 15.88L9.34 17.77C8.82 18.29 8.56 18.97 8.56 19.65C8.56 20.33 8.82 21.02 9.35 21.54C10.39 22.58 12.08 22.57 13.12 21.53L15 19.64L18.25 16.37L15.22 19.85L16.89 21.51C17.93 22.55 19.62 22.55 20.66 21.51Z" fill="url(#paint0_linear_58:3)"/>
<defs>
<linearGradient id="paint0_linear_58:3" x1="-1.5917" y1="29.0884" x2="79.1953" y2="2.216" gradientUnits="userSpaceOnUse">
<stop stop-color="white"/>
<stop offset="0.7318" stop-color="#697597"/>
</linearGradient>
</defs>
</svg>
