<svg width="83" height="51" viewBox="0 0 83 51" fill="none" xmlns="http://www.w3.org/2000/svg">
<g clip-path="url(#clip0_0:1)">
<path d="M47.5591 0L36.8674 48L83.0073 34.3636L47.5591 0ZM55.4862 38.3636C56.1461 37.7382 56.6668 36.9891 57.0408 36.1745C57.4074 35.3527 57.6201 34.4655 57.6494 33.5491C58.1847 34.2982 58.8521 34.9236 59.6147 35.4036C60.3773 35.8836 61.228 36.2182 62.1226 36.3855L55.4862 38.3636ZM60.326 31.9636L56.9894 30.1818L60.0547 23.4909L56.5568 29.9491L54.5329 33.6873C53.4109 35.7527 50.8223 36.5236 48.7397 35.4182C47.6984 34.8655 46.9797 33.9418 46.6644 32.8945C46.3491 31.8545 46.4444 30.6982 46.9944 29.6727L49.0183 25.9345L53.0662 18.4655L60.5973 22.48L64.3666 24.4873C66.4492 25.6 67.2265 28.1673 66.1118 30.2327C64.9972 32.2982 62.4013 33.0691 60.326 31.9636Z" fill="url(#paint0_linear_0:1)"/>
<path d="M37.0507 10.7273L15 18.3709L31.9395 33.3309L37.0507 10.7273ZM23.5064 23.3818C23.9244 23.4909 24.3571 23.5127 24.775 23.4545C25.2004 23.3964 25.611 23.2654 25.985 23.0473C25.8163 23.4473 25.7284 23.8691 25.721 24.2909C25.7137 24.7127 25.7943 25.1345 25.9483 25.5345L23.5064 23.3818ZM27.2976 23.7236L27.1876 21.9564L30.6489 21.52L27.173 21.7309L25.1637 21.8545C24.0491 21.92 23.0958 21.0836 23.0298 19.9782C22.9931 19.4254 23.1911 18.9091 23.5357 18.5309C23.8804 18.1527 24.3644 17.8982 24.9217 17.8618L26.931 17.7382L30.9569 17.4982L31.1989 21.4909L31.3235 23.4836C31.3895 24.5891 30.5462 25.5345 29.4316 25.6C28.3169 25.6582 27.3636 24.8218 27.2976 23.7236Z" fill="url(#paint1_linear_0:1)"/>
</g>
<g clip-path="url(#clip1_0:1)">
<g opacity="0.37">
<g opacity="0.37">
<path opacity="0.37" d="M25.87 42.65L5.26 25L0 50.82L25.87 42.65ZM5.15 36.5C5.29 36.98 5.51 37.43 5.82 37.82C6.12 38.21 6.5 38.54 6.94 38.8C6.44 38.86 5.96 39.02 5.53 39.27C5.1 39.51 4.72 39.84 4.41 40.23L5.15 36.5ZM7.02 40.5L8.75 39.35L11.22 42.57L8.97 39.2L7.67 37.25C6.95 36.17 7.25 34.72 8.32 34C8.86 33.64 9.49 33.53 10.08 33.65C10.67 33.77 11.21 34.11 11.56 34.65L12.86 36.6L15.45 40.5L11.55 43.09L9.6 44.39C8.52 45.11 7.07 44.81 6.35 43.74C5.65 42.67 5.94 41.22 7.02 40.5Z" fill="url(#paint2_linear_0:1)"/>
</g>
</g>
</g>
<defs>
<linearGradient id="paint0_linear_0:1" x1="30.5963" y1="41.2626" x2="70.1044" y2="13.375" gradientUnits="userSpaceOnUse">
<stop stop-color="white"/>
<stop offset="0.6948" stop-color="#697597"/>
<stop offset="1" stop-color="#A6ADC1"/>
</linearGradient>
<linearGradient id="paint1_linear_0:1" x1="16.1709" y1="14.2061" x2="37.1049" y2="23.2901" gradientUnits="userSpaceOnUse">
<stop stop-color="white"/>
<stop offset="0.6948" stop-color="#697597"/>
<stop offset="1" stop-color="#A6ADC1"/>
</linearGradient>
<linearGradient id="paint2_linear_0:1" x1="10.1596" y1="23.7253" x2="13.3422" y2="50.0805" gradientUnits="userSpaceOnUse">
<stop stop-color="white"/>
<stop offset="0.6948" stop-color="#697597"/>
<stop offset="1" stop-color="#A6ADC1"/>
</linearGradient>
<clipPath id="clip0_0:1">
<rect width="68" height="48" fill="white" transform="translate(15)"/>
</clipPath>
<clipPath id="clip1_0:1">
<rect width="25.87" height="25.82" fill="white" transform="translate(0 25)"/>
</clipPath>
</defs>
</svg>
